<svg xmlns="http://www.w3.org/2000/svg" width="1200" height="700">
<rect width="100%" height="100%" fill="white"/>
<rect x="90" y="50" width="1070" height="570" fill="none" stroke="#333" stroke-width="1"/>
<line x1="90" y1="620.00" x2="1160" y2="620.00" stroke="#ddd"/>
<text x="82" y="624.00" font-size="12" text-anchor="end" fill="#333">0.0</text>
<line x1="90" y1="506.00" x2="1160" y2="506.00" stroke="#ddd"/>
<text x="82" y="510.00" font-size="12" text-anchor="end" fill="#333">0.2</text>
<line x1="90" y1="392.00" x2="1160" y2="392.00" stroke="#ddd"/>
<text x="82" y="396.00" font-size="12" text-anchor="end" fill="#333">0.4</text>
<line x1="90" y1="278.00" x2="1160" y2="278.00" stroke="#ddd"/>
<text x="82" y="282.00" font-size="12" text-anchor="end" fill="#333">0.6</text>
<line x1="90" y1="164.00" x2="1160" y2="164.00" stroke="#ddd"/>
<text x="82" y="168.00" font-size="12" text-anchor="end" fill="#333">0.8</text>
<line x1="90" y1="50.00" x2="1160" y2="50.00" stroke="#ddd"/>
<text x="82" y="54.00" font-size="12" text-anchor="end" fill="#333">1.0</text>
<line x1="90.00" y1="50" x2="90.00" y2="620" stroke="#eee"/>
<text x="90.00" y="642" font-size="12" text-anchor="middle" fill="#333">0</text>
<line x1="228.96" y1="50" x2="228.96" y2="620" stroke="#eee"/>
<text x="228.96" y="642" font-size="12" text-anchor="middle" fill="#333">10</text>
<line x1="367.92" y1="50" x2="367.92" y2="620" stroke="#eee"/>
<text x="367.92" y="642" font-size="12" text-anchor="middle" fill="#333">20</text>
<line x1="506.88" y1="50" x2="506.88" y2="620" stroke="#eee"/>
<text x="506.88" y="642" font-size="12" text-anchor="middle" fill="#333">30</text>
<line x1="645.84" y1="50" x2="645.84" y2="620" stroke="#eee"/>
<text x="645.84" y="642" font-size="12" text-anchor="middle" fill="#333">40</text>
<line x1="784.81" y1="50" x2="784.81" y2="620" stroke="#eee"/>
<text x="784.81" y="642" font-size="12" text-anchor="middle" fill="#333">50</text>
<line x1="923.77" y1="50" x2="923.77" y2="620" stroke="#eee"/>
<text x="923.77" y="642" font-size="12" text-anchor="middle" fill="#333">60</text>
<line x1="1062.73" y1="50" x2="1062.73" y2="620" stroke="#eee"/>
<text x="1062.73" y="642" font-size="12" text-anchor="middle" fill="#333">70</text>
<polyline points="90.00,50.00 90.93,50.00 91.85,50.00 92.78,50.00 93.71,50.00 94.63,50.00 95.56,50.00 96.48,50.00 97.41,50.00 98.34,50.00 99.26,50.00 100.19,50.00 101.12,50.00 102.04,50.00 102.97,50.00 103.90,50.00 104.82,50.00 105.75,51.11 106.68,51.11 107.60,51.11 108.53,51.11 109.45,51.11 110.38,51.11 111.31,51.11 112.23,51.11 113.16,51.11 114.09,51.11 115.01,51.11 115.94,51.11 116.87,51.11 117.79,51.11 118.72,53.34 119.65,53.34 120.57,54.45 121.50,56.68 122.42,56.68 123.35,56.68 124.28,56.68 125.20,56.68 126.13,57.79 127.06,58.91 127.98,58.91 128.91,61.13 129.84,61.13 130.76,61.13 131.69,61.13 132.61,61.13 133.54,61.13 134.47,61.13 135.39,61.13 136.32,62.25 137.25,62.25 138.17,62.25 139.10,62.25 140.03,62.25 140.95,62.25 141.88,62.25 142.81,62.25 143.73,62.25 144.66,62.25 145.58,62.25 146.51,63.36 147.44,63.36 148.36,63.36 149.29,63.36 150.22,63.36 151.14,63.36 152.07,63.36 153.00,63.36 153.92,63.36 154.85,63.36 155.77,63.36 156.70,63.36 157.63,63.36 158.55,64.47 159.48,65.59 160.41,65.59 161.33,65.59 162.26,65.59 163.19,65.59 164.11,65.59 165.04,65.59 165.97,65.59 166.89,66.70 167.82,66.70 168.74,66.70 169.67,66.70 170.60,66.70 171.52,66.70 172.45,66.70 173.38,67.81 174.30,67.81 175.23,67.81 176.16,67.81 177.08,67.81 178.01,67.81 178.94,67.81 179.86,67.81 180.79,67.81 181.71,67.81 182.64,67.81 183.57,67.81 184.49,67.81 185.42,67.81 186.35,67.81 187.27,68.93 188.20,70.04 189.13,70.04 190.05,70.04 190.98,70.04 191.90,70.04 192.83,70.04 193.76,70.04 194.68,70.04 195.61,70.04 196.54,70.04 197.46,70.04 198.39,71.15 199.32,71.15 200.24,71.15 201.17,72.27 202.10,73.38 203.02,74.49 203.95,74.49 204.87,74.49 205.80,74.49 206.73,74.49 207.65,74.49 208.58,74.49 209.51,74.49 210.43,74.49 211.36,74.49 212.29,74.49 213.21,74.49 214.14,74.49 215.06,74.49 215.99,74.49 216.92,74.49 217.84,74.49 218.77,75.61 219.70,75.61 220.62,75.61 221.55,76.72 222.48,76.72 223.40,76.72 224.33,76.72 225.26,77.83 226.18,77.83 227.11,77.83 228.03,78.95 228.96,80.06 229.89,80.06 230.81,81.17 231.74,81.17 232.67,81.17 233.59,81.17 234.52,81.17 235.45,81.17 236.37,81.17 237.30,82.29 238.23,82.29 239.15,82.29 240.08,82.29 241.00,82.29 241.93,82.29 242.86,82.29 243.78,82.29 244.71,82.29 245.64,82.29 246.56,82.29 247.49,82.29 248.42,82.29 249.34,82.29 250.27,82.29 251.19,82.29 252.12,82.29 253.05,82.29 253.97,82.29 254.90,82.29 255.83,82.29 256.75,82.29 257.68,82.29 258.61,83.40 259.53,83.40 260.46,83.40 261.39,83.40 262.31,83.40 263.24,83.40 264.16,83.40 265.09,83.40 266.02,83.40 266.94,83.40 267.87,83.40 268.80,83.40 269.72,83.40 270.65,85.62 271.58,85.62 272.50,85.62 273.43,85.62 274.35,85.62 275.28,85.62 276.21,85.62 277.13,85.62 278.06,85.62 278.99,86.74 279.91,86.74 280.84,86.74 281.77,86.74 282.69,86.74 283.62,87.85 284.55,87.85 285.47,87.85 286.40,87.85 287.32,87.85 288.25,87.85 289.18,87.85 290.10,87.85 291.03,87.85 291.96,87.85 292.88,87.85 293.81,88.96 294.74,88.96 295.66,88.96 296.59,88.96 297.52,88.96 298.44,88.96 299.37,88.96 300.29,88.96 301.22,88.96 302.15,88.96 303.07,88.96 304.00,88.96 304.93,88.96 305.85,88.96 306.78,88.96 307.71,88.96 308.63,88.96 309.56,88.96 310.48,88.96 311.41,88.96 312.34,88.96 313.26,88.96 314.19,90.08 315.12,90.08 316.04,90.08 316.97,90.08 317.90,90.08 318.82,90.08 319.75,90.08 320.68,90.08 321.60,90.08 322.53,90.08 323.45,90.08 324.38,91.19 325.31,91.19 326.23,91.19 327.16,91.19 328.09,91.19 329.01,91.19 329.94,91.19 330.87,91.19 331.79,91.19 332.72,91.19 333.65,91.19 334.57,91.19 335.50,91.19 336.42,91.19 337.35,91.19 338.28,91.19 339.20,91.19 340.13,91.19 341.06,91.19 341.98,91.19 342.91,91.19 343.84,91.19 344.76,91.19 345.69,91.19 346.61,91.19 347.54,92.30 348.47,92.30 349.39,93.42 350.32,94.53 351.25,94.53 352.17,94.53 353.10,94.53 354.03,94.53 354.95,94.53 355.88,94.53 356.81,94.53 357.73,94.53 358.66,94.53 359.58,94.53 360.51,95.64 361.44,95.64 362.36,95.64 363.29,95.64 364.22,95.64 365.14,95.64 366.07,95.64 367.00,95.64 367.92,96.76 368.85,96.76 369.77,97.87 370.70,97.87 371.63,97.87 372.55,97.87 373.48,97.87 374.41,98.98 375.33,98.98 376.26,98.98 377.19,100.10 378.11,101.21 379.04,101.21 379.97,101.21 380.89,101.21 381.82,101.21 382.74,101.21 383.67,101.21 384.60,101.21 385.52,102.32 386.45,102.32 387.38,102.32 388.30,102.32 389.23,104.55 390.16,104.55 391.08,104.55 392.01,104.55 392.94,104.55 393.86,105.66 394.79,105.66 395.71,106.78 396.64,106.78 397.57,106.78 398.49,106.78 399.42,106.78 400.35,106.78 401.27,106.78 402.20,106.78 403.13,106.78 404.05,106.78 404.98,106.78 405.90,106.78 406.83,106.78 407.76,106.78 408.68,106.78 409.61,106.78 410.54,106.78 411.46,106.78 412.39,107.89 413.32,110.12 414.24,111.23 415.17,111.23 416.10,111.23 417.02,111.23 417.95,112.34 418.87,112.34 419.80,112.34 420.73,112.34 421.65,113.46 422.58,113.46 423.51,114.57 424.43,114.57 425.36,115.68 426.29,115.68 427.21,115.68 428.14,116.80 429.06,116.80 429.99,116.80 430.92,116.80 431.84,116.80 432.77,116.80 433.70,116.80 434.62,117.91 435.55,117.91 436.48,117.91 437.40,117.91 438.33,117.91 439.26,117.91 440.18,117.91 441.11,117.91 442.03,117.91 442.96,117.91 443.89,117.91 444.81,117.91 445.74,117.91 446.67,117.91 447.59,117.91 448.52,117.91 449.45,117.91 450.37,119.02 451.30,119.02 452.23,119.02 453.15,119.02 454.08,119.02 455.00,119.02 455.93,119.02 456.86,119.02 457.78,119.02 458.71,119.02 459.64,119.02 460.56,119.02 461.49,119.02 462.42,120.14 463.34,120.14 464.27,120.14 465.19,120.14 466.12,120.14 467.05,120.14 467.97,120.14 468.90,121.25 469.83,121.25 470.75,121.25 471.68,121.25 472.61,121.25 473.53,122.36 474.46,122.36 475.39,122.36 476.31,122.36 477.24,122.36 478.16,122.36 479.09,122.36 480.02,122.36 480.94,123.48 481.87,123.48 482.80,125.70 483.72,125.70 484.65,125.70 485.58,125.70 486.50,126.82 487.43,126.82 488.35,126.82 489.28,126.82 490.21,126.82 491.13,129.04 492.06,129.04 492.99,129.04 493.91,129.04 494.84,130.16 495.77,130.16 496.69,130.16 497.62,130.16 498.55,130.16 499.47,130.16 500.40,130.16 501.32,130.16 502.25,131.27 503.18,131.27 504.10,131.27 505.03,131.27 505.96,131.27 506.88,131.27 507.81,131.27 508.74,131.27 509.66,131.27 510.59,131.27 511.52,131.27 512.44,131.27 513.37,131.27 514.29,131.27 515.22,131.27 516.15,131.27 517.07,131.27 518.00,131.27 518.93,131.27 519.85,131.27 520.78,131.27 521.71,131.27 522.63,131.27 523.56,131.27 524.48,131.27 525.41,131.27 526.34,131.27 527.26,131.27 528.19,131.27 529.12,131.27 530.04,131.27 530.97,131.27 531.90,131.27 532.82,131.27 533.75,132.38 534.68,132.38 535.60,132.38 536.53,132.38 537.45,132.38 538.38,132.38 539.31,132.38 540.23,132.38 541.16,133.50 542.09,133.50 543.01,133.50 543.94,133.50 544.87,133.50 545.79,133.50 546.72,133.50 547.65,133.50 548.57,133.50 549.50,133.50 550.42,133.50 551.35,133.50 552.28,133.50 553.20,133.50 554.13,133.50 555.06,133.50 555.98,133.50 556.91,133.50 557.84,133.50 558.76,133.50 559.69,133.50 560.61,133.50 561.54,133.50 562.47,133.50 563.39,133.50 564.32,133.50 565.25,133.50 566.17,133.50 567.10,133.50 568.03,133.50 568.95,133.50 569.88,133.50 570.81,133.50 571.73,133.50 572.66,133.50 573.58,133.50 574.51,133.50 575.44,134.61 576.36,134.61 577.29,134.61 578.22,134.61 579.14,135.72 580.07,135.72 581.00,135.72 581.92,135.72 582.85,135.72 583.77,135.72 584.70,135.72 585.63,135.72 586.55,135.72 587.48,135.72 588.41,135.72 589.33,135.72 590.26,135.72 591.19,135.72 592.11,135.72 593.04,135.72 593.97,135.72 594.89,135.72 595.82,135.72 596.74,135.72 597.67,135.72 598.60,135.72 599.52,135.72 600.45,135.72 601.38,135.72 602.30,135.72 603.23,135.72 604.16,135.72 605.08,135.72 606.01,135.72 606.94,135.72 607.86,135.72 608.79,135.72 609.71,135.72 610.64,135.72 611.57,135.72 612.49,135.72 613.42,135.72 614.35,135.72 615.27,135.72 616.20,135.72 617.13,135.72 618.05,135.72 618.98,135.72 619.90,135.72 620.83,135.72 621.76,135.72 622.68,135.72 623.61,136.84 624.54,136.84 625.46,136.84 626.39,136.84 627.32,136.84 628.24,136.84 629.17,136.84 630.10,136.84 631.02,136.84 631.95,136.84 632.87,137.95 633.80,139.06 634.73,139.06 635.65,139.06 636.58,139.06 637.51,139.06 638.43,139.06 639.36,139.06 640.29,139.06 641.21,139.06 642.14,139.06 643.06,139.06 643.99,139.06 644.92,139.06 645.84,139.06 646.77,139.06 647.70,139.06 648.62,139.06 649.55,139.06 650.48,139.06 651.40,139.06 652.33,139.06 653.26,139.06 654.18,139.06 655.11,139.06 656.03,139.06 656.96,139.06 657.89,139.06 658.81,140.18 659.74,140.18 660.67,140.18 661.59,140.18 662.52,140.18 663.45,141.29 664.37,141.29 665.30,141.29 666.23,141.29 667.15,141.29 668.08,141.29 669.00,141.29 669.93,141.29 670.86,141.29 671.78,141.29 672.71,141.29 673.64,141.29 674.56,141.29 675.49,141.29 676.42,141.29 677.34,142.40 678.27,142.40 679.19,142.40 680.12,142.40 681.05,142.40 681.97,142.40 682.90,143.52 683.83,143.52 684.75,143.52 685.68,143.52 686.61,143.52 687.53,143.52 688.46,143.52 689.39,143.52 690.31,143.52 691.24,143.52 692.16,143.52 693.09,143.52 694.02,143.52 694.94,143.52 695.87,143.52 696.80,143.52 697.72,143.52 698.65,143.52 699.58,143.52 700.50,143.52 701.43,143.52 702.35,145.74 703.28,145.74 704.21,146.86 705.13,146.86 706.06,146.86 706.99,147.97 707.91,147.97 708.84,147.97 709.77,147.97 710.69,147.97 711.62,147.97 712.55,147.97 713.47,147.97 714.40,147.97 715.32,147.97 716.25,147.97 717.18,147.97 718.10,147.97 719.03,147.97 719.96,147.97 720.88,147.97 721.81,147.97 722.74,149.08 723.66,149.08 724.59,149.08 725.52,149.08 726.44,149.08 727.37,149.08 728.29,149.08 729.22,149.08 730.15,149.08 731.07,149.08 732.00,149.08 732.93,149.08 733.85,149.08 734.78,150.20 735.71,150.20 736.63,150.20 737.56,150.20 738.48,150.20 739.41,151.31 740.34,151.31 741.26,151.31 742.19,151.31 743.12,151.31 744.04,151.31 744.97,151.31 745.90,151.31 746.82,151.31 747.75,151.31 748.68,151.31 749.60,151.31 750.53,151.31 751.45,151.31 752.38,151.31 753.31,151.31 754.23,151.31 755.16,151.31 756.09,151.31 757.01,151.31 757.94,151.31 758.87,151.31 759.79,151.31 760.72,151.31 761.65,151.31 762.57,151.31 763.50,151.31 764.42,151.31 765.35,151.31 766.28,152.42 767.20,152.42 768.13,152.42 769.06,152.42 769.98,152.42 770.91,153.54 771.84,153.54 772.76,153.54 773.69,154.65 774.61,154.65 775.54,154.65 776.47,154.65 777.39,154.65 778.32,154.65 779.25,154.65 780.17,154.65 781.10,155.76 782.03,155.76 782.95,155.76 783.88,155.76 784.81,155.76 785.73,155.76 786.66,155.76 787.58,156.88 788.51,156.88 789.44,156.88 790.36,156.88 791.29,156.88 792.22,156.88 793.14,156.88 794.07,156.88 795.00,156.88 795.92,156.88 796.85,157.99 797.77,157.99 798.70,159.10 799.63,159.10 800.55,159.10 801.48,159.10 802.41,159.10 803.33,159.10 804.26,160.21 805.19,160.21 806.11,160.21 807.04,160.21 807.97,160.21 808.89,160.21 809.82,160.21 810.74,160.21 811.67,161.33 812.60,161.33 813.52,162.44 814.45,162.44 815.38,162.44 816.30,162.44 817.23,163.55 818.16,163.55 819.08,163.55 820.01,163.55 820.94,163.55 821.86,164.67 822.79,164.67 823.71,164.67 824.64,164.67 825.57,165.78 826.49,165.78 827.42,165.78 828.35,165.78 829.27,165.78 830.20,166.89 831.13,166.89 832.05,166.89 832.98,166.89 833.90,166.89 834.83,166.89 835.76,166.89 836.68,166.89 837.61,166.89 838.54,166.89 839.46,166.89 840.39,166.89 841.32,166.89 842.24,166.89 843.17,168.01 844.10,168.01 845.02,169.12 845.95,169.12 846.87,169.12 847.80,169.12 848.73,169.12 849.65,169.12 850.58,169.12 851.51,169.12 852.43,169.12 853.36,169.12 854.29,169.12 855.21,169.12 856.14,169.12 857.06,170.23 857.99,170.23 858.92,170.23 859.84,170.23 860.77,171.35 861.70,171.35 862.62,171.35 863.55,171.35 864.48,171.35 865.40,171.35 866.33,171.35 867.26,171.35 868.18,171.35 869.11,171.35 870.03,172.46 870.96,172.46 871.89,174.69 872.81,174.69 873.74,174.69 874.67,174.69 875.59,174.69 876.52,174.69 877.45,174.69 878.37,174.69 879.30,175.80 880.23,175.80 881.15,175.80 882.08,175.80 883.00,175.80 883.93,176.91 884.86,176.91 885.78,176.91 886.71,176.91 887.64,176.91 888.56,176.91 889.49,176.91 890.42,176.91 891.34,176.91 892.27,176.91 893.19,176.91 894.12,176.91 895.05,176.91 895.97,176.91 896.90,178.03 897.83,178.03 898.75,178.03 899.68,179.14 900.61,179.14 901.53,179.14 902.46,179.14 903.39,179.14 904.31,179.14 905.24,179.14 906.16,181.37 907.09,181.37 908.02,181.37 908.94,181.37 909.87,181.37 910.80,181.37 911.72,181.37 912.65,181.37 913.58,181.37 914.50,181.37 915.43,181.37 916.35,181.37 917.28,181.37 918.21,181.37 919.13,182.48 920.06,182.48 920.99,182.48 921.91,182.48 922.84,182.48 923.77,183.59 924.69,183.59 925.62,183.59 926.55,183.59 927.47,183.59 928.40,183.59 929.32,183.59 930.25,183.59 931.18,183.59 932.10,183.59 933.03,183.59 933.96,183.59 934.88,183.59 935.81,183.59 936.74,183.59 937.66,185.82 938.59,188.05 939.52,188.05 940.44,188.05 941.37,188.05 942.29,189.16 943.22,189.16 944.15,189.16 945.07,189.16 946.00,189.16 946.93,189.16 947.85,189.16 948.78,189.16 949.71,189.16 950.63,189.16 951.56,189.16 952.48,189.16 953.41,189.16 954.34,189.16 955.26,190.27 956.19,190.27 957.12,190.27 958.04,190.27 958.97,190.27 959.90,190.27 960.82,190.27 961.75,190.27 962.68,191.39 963.60,191.39 964.53,191.39 965.45,191.39 966.38,191.39 967.31,191.39 968.23,191.39 969.16,191.39 970.09,191.39 971.01,191.39 971.94,191.39 972.87,191.39 973.79,191.39 974.72,191.39 975.65,191.39 976.57,191.39 977.50,191.39 978.42,191.39 979.35,191.39 980.28,191.39 981.20,191.39 982.13,192.50 983.06,192.50 983.98,193.61 984.91,193.61 985.84,193.61 986.76,193.61 987.69,193.61 988.61,193.61 989.54,194.73 990.47,195.84 991.39,195.84 992.32,195.84 993.25,195.84 994.17,195.84 995.10,195.84 996.03,195.84 996.95,195.84 997.88,195.84 998.81,195.84 999.73,195.84 1000.66,196.95 1001.58,196.95 1002.51,196.95 1003.44,196.95 1004.36,196.95 1005.29,198.07 1006.22,198.07 1007.14,198.07 1008.07,198.07 1009.00,198.07 1009.92,198.07 1010.85,198.07 1011.77,198.07 1012.70,198.07 1013.63,198.07 1014.55,200.29 1015.48,200.29 1016.41,200.29 1017.33,200.29 1018.26,200.29 1019.19,200.29 1020.11,200.29 1021.04,201.41 1021.97,202.52 1022.89,202.52 1023.82,202.52 1024.74,202.52 1025.67,202.52 1026.60,203.63 1027.52,203.63 1028.45,203.63 1029.38,203.63 1030.30,204.75 1031.23,205.86 1032.16,205.86 1033.08,205.86 1034.01,205.86 1034.94,206.97 1035.86,206.97 1036.79,206.97 1037.71,206.97 1038.64,206.97 1039.57,206.97 1040.49,206.97 1041.42,206.97 1042.35,206.97 1043.27,208.09 1044.20,208.09 1045.13,208.09 1046.05,208.09 1046.98,208.09 1047.90,208.09 1048.83,208.09 1049.76,209.20 1050.68,209.20 1051.61,209.20 1052.54,210.31 1053.46,210.31 1054.39,210.31 1055.32,210.31 1056.24,210.31 1057.17,210.31 1058.10,210.31 1059.02,210.31 1059.95,210.31 1060.87,211.43 1061.80,211.43 1062.73,211.43 1063.65,212.54 1064.58,212.54 1065.51,214.77 1066.43,214.77 1067.36,214.77 1068.29,214.77 1069.21,214.77 1070.14,214.77 1071.06,214.77 1071.99,214.77 1072.92,214.77 1073.84,214.77 1074.77,214.77 1075.70,214.77 1076.62,214.77 1077.55,214.77 1078.48,214.77 1079.40,214.77 1080.33,214.77 1081.26,216.99 1082.18,216.99 1083.11,218.11 1084.03,218.11 1084.96,218.11 1085.89,218.11 1086.81,218.11 1087.74,218.11 1088.67,218.11 1089.59,218.11 1090.52,218.11 1091.45,218.11 1092.37,219.22 1093.30,219.22 1094.23,219.22 1095.15,219.22 1096.08,220.33 1097.00,220.33 1097.93,220.33 1098.86,220.33 1099.78,220.33 1100.71,220.33 1101.64,220.33 1102.56,220.33 1103.49,220.33 1104.42,220.33 1105.34,220.33 1106.27,220.33 1107.19,220.33 1108.12,220.33 1109.05,220.33 1109.97,220.33 1110.90,221.45 1111.83,222.56 1112.75,222.56 1113.68,222.56 1114.61,223.67 1115.53,223.67 1116.46,223.67 1117.39,224.79 1118.31,224.79 1119.24,224.79 1120.16,224.79 1121.09,224.79 1122.02,224.79 1122.94,224.79 1123.87,224.79 1124.80,224.79 1125.72,224.79 1126.65,224.79 1127.58,224.79 1128.50,224.79 1129.43,227.01 1130.35,227.01 1131.28,228.12 1132.21,229.24 1133.13,229.24 1134.06,229.24 1134.99,229.24 1135.91,229.24 1136.84,229.24 1137.77,229.24 1138.69,229.24 1139.62,229.24 1140.55,229.24 1141.47,229.24 1142.40,229.24 1143.32,229.24 1144.25,230.35 1145.18,230.35 1146.10,230.35 1147.03,231.46 1147.96,231.46 1148.88,231.46 1149.81,231.46 1150.74,231.46 1151.66,231.46 1152.59,231.46 1153.52,231.46 1154.44,231.46 1155.37,231.46 1156.29,231.46 1157.22,231.46 1158.15,231.46 1159.07,231.46 1160.00,232.58" fill="none" stroke="#1f77b4" stroke-width="2"/>
<line x1="687.53" y1="50" x2="687.53" y2="620" stroke="#d62728" stroke-dasharray="6,4" stroke-width="2"/>
<line x1="90" y1="143.48" x2="1160" y2="143.48" stroke="#2ca02c" stroke-dasharray="4,4" stroke-width="1.5"/>
<circle cx="687.53" cy="143.48" r="4" fill="#d62728"/>
<text x="702.53" y="133.48" font-size="14" fill="#111">x=43, 83.6%</text>
<text x="600" y="28" font-size="20" text-anchor="middle" fill="#111">Persistent Ratio Decay (x = step / 15)</text>
<text x="625.00" y="678" font-size="14" text-anchor="middle" fill="#111">step / 15</text>
<text x="22" y="335.00" font-size="14" text-anchor="middle" transform="rotate(-90 22 335.00)" fill="#111">persistent_after_first_connection_ratio</text>
</svg>